<?xml version="1.0" encoding="UTF-8" standalone="no"?>
<svg
   xmlns:dc="http://purl.org/dc/elements/1.1/"
   xmlns:cc="http://creativecommons.org/ns#"
   xmlns:rdf="http://www.w3.org/1999/02/22-rdf-syntax-ns#"
   xmlns:svg="http://www.w3.org/2000/svg"
   xmlns="http://www.w3.org/2000/svg"
   xmlns:sodipodi="http://sodipodi.sourceforge.net/DTD/sodipodi-0.dtd"
   xmlns:inkscape="http://www.inkscape.org/namespaces/inkscape"
   height="20"
   viewBox="0 96 960 960"
   width="20"
   version="1.1"
   id="svg4"
   sodipodi:docname="fa-check-square-o.svg"
   inkscape:version="1.0.2 (e86c870879, 2021-01-15, custom)">
  <metadata
     id="metadata10">
    <rdf:RDF>
      <cc:Work
         rdf:about="">
        <dc:format>image/svg+xml</dc:format>
        <dc:type
           rdf:resource="http://purl.org/dc/dcmitype/StillImage" />
      </cc:Work>
    </rdf:RDF>
  </metadata>
  <defs
     id="defs8" />
  <sodipodi:namedview
     pagecolor="#ffffff"
     bordercolor="#666666"
     borderopacity="1"
     objecttolerance="10"
     gridtolerance="10"
     guidetolerance="10"
     inkscape:pageopacity="0"
     inkscape:pageshadow="2"
     inkscape:window-width="1920"
     inkscape:window-height="1017"
     id="namedview6"
     showgrid="false"
     inkscape:zoom="29.257559"
     inkscape:cx="7.1827984"
     inkscape:cy="4.752856"
     inkscape:window-x="1912"
     inkscape:window-y="-8"
     inkscape:window-maximized="1"
     inkscape:current-layer="svg4" />
  <path
     d="m 234.615,904 c -23.69733,0 -43.391,-7.84467 -59.081,-23.534 C 159.84467,864.776 152,845.08233 152,821.385 v -490.77 c 0,-23.69733 7.84467,-43.391 23.534,-59.081 C 191.224,255.84467 210.91767,248 234.615,248 h 491.017 c 7.236,0 14.65767,1.17933 22.265,3.538 7.60733,2.35933 14.00067,5.23133 19.18,8.616 l -51.231,51.231 c -1.53867,-1.53867 -3.46167,-2.821 -5.769,-3.847 C 707.769,306.51267 705.07667,306 702,306 H 234.615 c -7.17933,0 -13.07667,2.30767 -17.692,6.923 -4.61533,4.61533 -6.923,10.51267 -6.923,17.692 v 490.77 c 0,7.17933 2.30767,13.07667 6.923,17.692 4.61533,4.61533 10.51267,6.923 17.692,6.923 h 490.77 c 7.17933,0 13.07667,-2.30767 17.692,-6.923 4.61533,-4.61533 6.923,-10.51267 6.923,-17.692 V 590.539 l 58,-58.001 v 288.847 c 0,23.69733 -7.84467,43.391 -23.534,59.081 C 768.776,896.15533 749.08233,904 725.385,904 Z"
     id="path2"
     sodipodi:nodetypes="scsscssccccssssssssssccscss" />
  <path
     d="M 481,757.53898 272.79938,554.90077 328.23219,525.71758 484.2299,587.56039 865.00907,325.90555 891.65325,352.80753 Z"
     id="path2-0"
     sodipodi:nodetypes="ccccccc"
     style="fill:#008080" />
</svg>
