<svg xmlns="http://www.w3.org/2000/svg" height="20" viewBox="0 96 960 960" width="20"><path d="M234.615 1007q-35.04 0-58.828-23.787Q152 959.425 152 924.385v-490.77q0-35.04 23.787-58.828Q199.575 351 234.615 351h302.231l-58 58H234.615q-9.23 0-16.923 7.692Q210 424.385 210 433.615v490.77q0 9.23 7.692 16.923Q225.385 949 234.615 949h490.77q9.23 0 16.923-7.692Q750 933.615 750 924.385V683.923l58-59v299.462q0 35.04-23.787 58.828Q760.425 1007 725.385 1007h-490.77ZM480 679Zm185.461-301.308L708.769 422 469 657v33h33l238.538-235 37.77 41.539L526.846 748H411V633.154l254.461-255.462Zm112.847 118.847L665.461 377.692l67.077-67.077Q755.901 287 789.874 287q33.972 0 58.357 24.384l-.099-1.372q24.638 26.142 24.638 59.266 0 33.125-25.154 57.953l-69.308 69.308Z"/></svg>