<svg width="19" height="18" viewBox="0 0 19 18" fill="none" xmlns="http://www.w3.org/2000/svg">
<path fill-rule="evenodd" clip-rule="evenodd" d="M7.05645 11.4435C6.95097 11.338 6.80792 11.2788 6.65876 11.2788C6.50961 11.2788 6.36656 11.338 6.26108 11.4435L1.65308 16.0515V12.9375C1.65308 12.7883 1.59381 12.6452 1.48832 12.5397C1.38283 12.4342 1.23976 12.375 1.09058 12.375C0.941392 12.375 0.798318 12.4342 0.692829 12.5397C0.587339 12.6452 0.528076 12.7883 0.528076 12.9375V17.4093C0.528076 17.5585 0.587339 17.7016 0.692829 17.8071C0.798318 17.9126 0.941392 17.9718 1.09058 17.9718H5.56245C5.71164 17.9718 5.85471 17.9126 5.9602 17.8071C6.06569 17.7016 6.12495 17.5585 6.12495 17.4093C6.12495 17.2601 6.06569 17.1171 5.9602 17.0116C5.85471 16.9061 5.71164 16.8468 5.56245 16.8468H2.44845L7.05645 12.2388C7.1619 12.1333 7.22114 11.9903 7.22114 11.8411C7.22114 11.692 7.1619 11.5489 7.05645 11.4435ZM11.9435 11.4435C12.0489 11.338 12.192 11.2788 12.3411 11.2788C12.4903 11.2788 12.6333 11.338 12.7388 11.4435L17.3468 16.0515V12.9375C17.3468 12.7883 17.4061 12.6452 17.5116 12.5397C17.6171 12.4342 17.7601 12.375 17.9093 12.375C18.0585 12.375 18.2016 12.4342 18.3071 12.5397C18.4126 12.6452 18.4718 12.7883 18.4718 12.9375V17.4093C18.4718 17.5585 18.4126 17.7016 18.3071 17.8071C18.2016 17.9126 18.0585 17.9718 17.9093 17.9718H13.4375C13.2883 17.9718 13.1452 17.9126 13.0397 17.8071C12.9342 17.7016 12.875 17.5585 12.875 17.4093C12.875 17.2601 12.9342 17.1171 13.0397 17.0116C13.1452 16.9061 13.2883 16.8468 13.4375 16.8468H16.5515L11.9435 12.2388C11.838 12.1333 11.7788 11.9903 11.7788 11.8411C11.7788 11.692 11.838 11.5489 11.9435 11.4435ZM11.9435 6.55645C12.0489 6.6619 12.192 6.72114 12.3411 6.72114C12.4903 6.72114 12.6333 6.6619 12.7388 6.55645L17.3468 1.94845V5.06245C17.3468 5.21164 17.4061 5.35471 17.5116 5.4602C17.6171 5.56569 17.7601 5.62495 17.9093 5.62495C18.0585 5.62495 18.2016 5.56569 18.3071 5.4602C18.4126 5.35471 18.4718 5.21164 18.4718 5.06245V0.590576C18.4718 0.441392 18.4126 0.298318 18.3071 0.192829C18.2016 0.0873394 18.0585 0.0280762 17.9093 0.0280762H13.4375C13.2883 0.0280762 13.1452 0.0873394 13.0397 0.192829C12.9342 0.298318 12.875 0.441392 12.875 0.590576C12.875 0.73976 12.9342 0.882835 13.0397 0.988324C13.1452 1.09381 13.2883 1.15308 13.4375 1.15308H16.5515L11.9435 5.76108C11.838 5.86656 11.7788 6.00961 11.7788 6.15876C11.7788 6.30792 11.838 6.45097 11.9435 6.55645ZM7.05645 6.55645C6.95097 6.6619 6.80792 6.72114 6.65876 6.72114C6.50961 6.72114 6.36656 6.6619 6.26108 6.55645L1.65308 1.94845V5.06245C1.65308 5.21164 1.59381 5.35471 1.48832 5.4602C1.38283 5.56569 1.23976 5.62495 1.09058 5.62495C0.941392 5.62495 0.798318 5.56569 0.692829 5.4602C0.587339 5.35471 0.528076 5.21164 0.528076 5.06245V0.590576C0.528076 0.441392 0.587339 0.298318 0.692829 0.192829C0.798318 0.0873394 0.941392 0.0280762 1.09058 0.0280762H5.56245C5.71164 0.0280762 5.85471 0.0873394 5.9602 0.192829C6.06569 0.298318 6.12495 0.441392 6.12495 0.590576C6.12495 0.73976 6.06569 0.882835 5.9602 0.988324C5.85471 1.09381 5.71164 1.15308 5.56245 1.15308H2.44845L7.05645 5.76108C7.1619 5.86656 7.22114 6.00961 7.22114 6.15876C7.22114 6.30792 7.1619 6.45097 7.05645 6.55645Z" fill="black"/>
</svg>
