<svg xmlns="http://www.w3.org/2000/svg" xmlns:cc="http://creativecommons.org/ns#" xmlns:dc="http://purl.org/dc/elements/1.1/" xmlns:inkscape="http://www.inkscape.org/namespaces/inkscape" xmlns:rdf="http://www.w3.org/1999/02/22-rdf-syntax-ns#" xmlns:sodipodi="http://sodipodi.sourceforge.net/DTD/sodipodi-0.dtd" xmlns:svg="http://www.w3.org/2000/svg" inkscape:version="1.4.3 (0d15f75, 2025-12-25)" sodipodi:docname="icon.svg" xml:space="preserve" width="103" height="82" fill="none" viewBox="0 0 103 82" style=""><sodipodi:namedview inkscape:current-layer="svg845" inkscape:cx="51.45098" inkscape:cy="40.961718" inkscape:deskcolor="#d1d1d1" inkscape:pagecheckerboard="0" inkscape:pageopacity="0" inkscape:pageshadow="2" inkscape:showpageshadow="0" inkscape:window-height="1129" inkscape:window-maximized="1" inkscape:window-width="1920" inkscape:window-x="-8" inkscape:window-y="-8" inkscape:zoom="6.5304878" bordercolor="#666666" borderopacity="1" gridtolerance="10" guidetolerance="10" objecttolerance="10" pagecolor="#ffffff" showgrid="false"/><path fill="#26ddc7" d="M25.309408.7695c3.405629 0 7.043819 1.238455 10.913849 3.715366 3.79299 2.39949 9.017715 6.656703 15.674173 12.771572C63.353073 7.658397 69.463765 5.496407 75.346209 5.496407c3.79299 0 7.043819 1.044945 9.752842 3.134834 4.990719 3.816285 5.823039 12.531801 2.326695 18.261935-2.786415 4.566814-6.424605 9.481938-10.913849 14.745277C86.729139 53.24891 92.43591 61.603135 92.43591 67.331147c0 4.102223-1.27729 7.237139-3.831509 9.404354-2.631629 2.167215-5.921331 3.250829-9.868768 3.250829-5.960205 0-15.305153-4.522361-26.838203-14.197796-6.579052 5.805038-11.765256 9.830235-15.557893 12.074856-3.870383 2.244609-7.547093 3.36711-11.030129 3.36711-4.64418 0-8.243442-1.509495-10.797745-4.528117-2.631725-3.096383-3.947573-6.734219-3.947573-10.913849 0-2.70939.387007-5.069924 1.161048-7.082693.774042-2.012428 2.205994-4.257037 4.295883-6.733865 2.08989-2.554576 5.418249-6.076119 9.984994-10.565716-4.411932-4.489244-7.66287-8.088614-9.7528-10.797718-2.167283-2.786524-3.637932-5.224752-4.411973-7.314642-.851448-2.089889-1.277152-4.411972-1.277152-6.966303 0-2.709131.580504-5.224725 1.741552-7.546808 1.161089-2.39953 2.863931-4.33462 5.108662-5.805282C19.658994 1.504831 22.290718.7695 25.309408.7695" style="stroke-width:1.36064"/></svg>