<?xml version="1.0" encoding="UTF-8" standalone="no"?>
<svg
   xmlns:svg="http://www.w3.org/2000/svg"
   xmlns="http://www.w3.org/2000/svg"
   width="103"
   height="82"
   viewBox="0 0 103 82"
   fill="none"
   version="1.1"
   id="svg845"
>
  <path
     id="path833"
     style="fill:#000000"
     d="M 74.068359 0.75976562 L 51.525391 23.236328 L 29.138672 0.78125 C 16.638472 6.813222 11.269531 17.796875 11.269531 17.796875 L 15.394531 21.939453 C 7.0907881 23.491009 0.83984375 30.732799 0.83984375 39.5 C 0.83984375 48.942678 8.0915364 56.612721 17.349609 57.310547 L 11.291016 63.351562 C 17.323016 75.853563 28.306641 81.220703 28.306641 81.220703 L 51.466797 58.152344 L 74.421875 81.197266 C 88.316775 72.710866 91.728516 63.558594 91.728516 63.558594 L 85.505859 57.318359 C 94.832531 56.689685 102.16016 48.991474 102.16016 39.5 C 102.16016 30.797984 96.004386 23.590759 87.792969 21.966797 L 91.708984 18.066406 C 83.222584 4.1714869 74.068359 0.75976562 74.068359 0.75976562 z M 18.867188 27.580078 C 21.081588 27.580078 23.071991 28.067569 24.837891 29.042969 C 26.631891 29.989669 28.046784 31.366528 29.083984 33.173828 C 30.121084 34.952528 30.640625 37.090038 30.640625 39.585938 C 30.640625 39.844137 30.625756 40.146034 30.597656 40.490234 C 30.569656 40.805834 30.541772 41.105678 30.513672 41.392578 L 13.40625 41.392578 C 13.538371 42.00804 13.741535 42.584652 14.03125 43.115234 C 14.59185 44.061934 15.36265 44.792194 16.34375 45.308594 C 17.35285 45.796294 18.531553 46.041016 19.876953 46.041016 C 21.082253 46.041016 22.132297 45.855422 23.029297 45.482422 C 23.954297 45.109522 24.795934 44.548634 25.552734 43.802734 L 29.042969 47.675781 C 28.005869 48.880681 26.702513 49.812756 25.132812 50.472656 C 23.563012 51.103756 21.755284 51.419922 19.708984 51.419922 C 17.130184 51.419922 14.858684 50.903894 12.896484 49.871094 C 10.962384 48.838294 9.4635975 47.432997 8.3984375 45.654297 C 7.3332775 43.846997 6.8007812 41.7951 6.8007812 39.5 C 6.8007812 37.1762 7.3183388 35.124403 8.3554688 33.345703 C 9.4206388 31.538403 10.863547 30.133006 12.685547 29.128906 C 14.507547 28.096106 16.568686 27.580078 18.867188 27.580078 z M 84.427734 27.580078 C 86.642134 27.580078 88.632538 28.067569 90.398438 29.042969 C 92.192337 29.989669 93.607431 31.366528 94.644531 33.173828 C 95.681631 34.952528 96.199219 37.090038 96.199219 39.585938 C 96.199219 39.844137 96.186203 40.146034 96.158203 40.490234 C 96.130103 40.805834 96.102219 41.105678 96.074219 41.392578 L 78.966797 41.392578 C 79.098921 42.00794 79.302123 42.584728 79.591797 43.115234 C 80.152397 44.061934 80.923297 44.792194 81.904297 45.308594 C 82.913397 45.796294 84.090047 46.041016 85.435547 46.041016 C 86.640847 46.041016 87.692844 45.855422 88.589844 45.482422 C 89.514844 45.109522 90.356381 44.548634 91.113281 43.802734 L 94.601562 47.675781 C 93.564363 48.880681 92.261106 49.812756 90.691406 50.472656 C 89.121706 51.103756 87.313778 51.419922 85.267578 51.419922 C 82.688778 51.419922 80.419131 50.903894 78.457031 49.871094 C 76.522931 48.838294 75.022131 47.432997 73.957031 45.654297 C 72.891831 43.846997 72.359375 41.7951 72.359375 39.5 C 72.359375 37.1762 72.878916 35.124403 73.916016 33.345703 C 74.981216 31.538403 76.424094 30.133006 78.246094 29.128906 C 80.068094 28.096106 82.129234 27.580078 84.427734 27.580078 z M 18.910156 32.658203 C 17.788956 32.658203 16.792828 32.915241 15.923828 33.431641 C 15.082928 33.919341 14.423766 34.623016 13.947266 35.541016 C 13.640977 36.112527 13.445358 36.76284 13.335938 37.476562 L 24.451172 37.476562 C 24.344449 36.750473 24.143293 36.086127 23.828125 35.498047 C 23.351625 34.608647 22.692463 33.919341 21.851562 33.431641 C 21.010663 32.915241 20.031356 32.658203 18.910156 32.658203 z M 84.46875 32.658203 C 83.34755 32.658203 82.353275 32.915241 81.484375 33.431641 C 80.643375 33.919341 79.984313 34.623016 79.507812 35.541016 C 79.201588 36.112527 79.005927 36.76284 78.896484 37.476562 L 90.011719 37.476562 C 89.904979 36.750427 89.70379 36.086157 89.388672 35.498047 C 88.912172 34.608647 88.253009 33.919341 87.412109 33.431641 C 86.571209 32.915241 85.58995 32.658203 84.46875 32.658203 z " />
</svg>
