<svg xmlns="http://www.w3.org/2000/svg" xmlns:inkscape="http://www.inkscape.org/namespaces/inkscape" xmlns:sodipodi="http://sodipodi.sourceforge.net/DTD/sodipodi-0.dtd" xmlns:svg="http://www.w3.org/2000/svg" inkscape:version="1.4.3 (0d15f75, 2025-12-25)" sodipodi:docname="monologo.svg" xml:space="preserve" width="103" height="103" style="" viewBox="0 0 103 103"><sodipodi:namedview inkscape:current-layer="svg845" inkscape:cx="-62.544993" inkscape:cy="83.941964" inkscape:deskcolor="#d1d1d1" inkscape:pagecheckerboard="0" inkscape:pageopacity="0" inkscape:showpageshadow="0" inkscape:window-height="1129" inkscape:window-maximized="1" inkscape:window-width="1920" inkscape:window-x="-8" inkscape:window-y="-8" inkscape:zoom="1.5189066" bordercolor="#999999" borderopacity="1" pagecolor="#ffffff"/><path d="M12.7345181 26.681797 0 13.9473295l3.8068633-3.8068628 8.9276543 8.9276543L31.802639 0l3.8068657 3.8068633z"/><path fill="#26ddc7" d="M39.15796 26.475902c3.239017 0 6.699212 1.177852 10.379905 3.533556 3.60737 2.282079 8.576429 6.331011 14.907251 12.146721 10.895093-9.128466 16.706797-11.184642 22.301405-11.184642 3.607409 0 6.699179.993789 9.275599 2.981404 4.7466 3.629594 5.53815 11.918665 2.21288 17.368441-2.65005 4.343358-6.11021 9.017991-10.37983 14.023786C97.57249 76.38751 103 84.33299 103 89.78072c0 3.90153-1.21474 6.88305-3.64399 8.94425-2.50288 2.06113-5.63161 3.09177-9.38589 3.09177-5.668576 0-14.556324-4.3011-25.525004-13.50316-6.257159 5.52102-11.189632 9.34927-14.796662 11.48406C45.967421 101.93239 42.470602 103 39.15796 103c-4.416907 0-7.840101-1.43566-10.269393-4.30655-2.502916-2.94489-3.754431-6.40475-3.754431-10.37987 0-2.5768.367748-4.82184 1.104227-6.73613.736176-1.91396 2.098091-4.04871 4.085707-6.40441 1.987653-2.42956 5.153121-5.778788 9.496441-10.048709-4.196069-4.269619-7.287912-7.692851-9.275603-10.269393-2.061241-2.650167-3.459931-4.969096-4.196108-6.956749-.809801-1.987616-1.214664-4.196107-1.214664-6.625437 0-2.576617.552076-4.969058 1.656378-7.177587 1.104264-2.282117 2.723754-4.122482 4.858658-5.521172 2.134866-1.398727 4.637821-2.098091 7.508788-2.098091" style="fill:#000;stroke-width:1.29406"/></svg>