<?xml version="1.0" encoding="utf-8"?>
<svg version="1.1" id="svg845" xmlns:svg="http://www.w3.org/2000/svg"
	 xmlns="http://www.w3.org/2000/svg" xmlns:xlink="http://www.w3.org/1999/xlink" x="0px" y="0px" width="103px" height="103px"
	 viewBox="0 0 103 103" style="enable-background:new 0 0 103 103;" xml:space="preserve">
<path id="path833" d="M76.2824783,26.4752808L54.8423309,47.8522682l-21.2915421-21.356554
	c-11.8886795,5.7368832-16.9949665,16.1832066-16.9949665,16.1832066l3.9232006,3.9399185
	c-7.8975163,1.4756508-13.842659,8.3631668-13.842659,16.7014694c0,8.980732,6.896934,16.2755547,15.7020931,16.9392433
	l-5.7622013,5.7454834C22.3131638,97.8954239,32.7594604,103,32.7594604,103L54.786602,81.0601654l21.8320961,21.9175415
	c13.2151489-8.0712357,16.4599838-16.7757721,16.4599838-16.7757721l-5.9182358-5.9349518
	C96.0308533,79.6690598,103,72.3474503,103,63.3203087c0-8.2763062-5.8546219-15.1309471-13.6643295-16.6754646l3.7244415-3.7095795
	C84.9888763,29.7200966,76.2824783,26.4752808,76.2824783,26.4752808z M23.7817936,51.9835205
	c2.1060715,0,3.9991016,0.4636421,5.6786118,1.3913231c1.7062359,0.9003906,3.0519123,2.2098885,4.0383701,3.9287758
	c0.9863663,1.6916847,1.4804916,3.7246246,1.4804916,6.098423c0,0.2455673-0.0141449,0.5326958-0.0408669,0.8600578
	c-0.0266304,0.3001633-0.0531502,0.5853348-0.0798759,0.8582001H18.5880108
	c0.125658,0.5853577,0.318882,1.1337585,0.5944252,1.638382c0.5331745,0.9003906,1.2662659,1.5949249,2.1993694,2.0860596
	c0.959734,0.4638443,2.0807743,0.6965942,3.3603554,0.6965942c1.1463356,0,2.1450119-0.1765137,2.9981289-0.5312729
	c0.8797474-0.3546524,1.680212-0.8881073,2.3999882-1.5975113l3.3194885,3.6835709
	c-0.9863625,1.1459579-2.2259579,2.0324326-3.7188663,2.6600494c-1.4930058,0.6002274-3.2122974,0.9009247-5.1584911,0.9009247
	c-2.4526424,0-4.6130199-0.4907837-6.4792252-1.473053c-1.8394833-0.9822769-3.2649479-2.3188248-4.2779989-4.0105133
	c-1.013052-1.7188873-1.5194979-3.6703949-1.5194979-5.8532219c0-2.2101173,0.492238-4.1615372,1.478631-5.8532219
	c1.0130615-1.7188873,2.3853807-3.0555305,4.118247-4.0105095C19.6354313,52.4743042,21.5957375,51.9835205,23.7817936,51.9835205z
	 M86.1350632,51.9835205c2.1060715,0,3.9990997,0.4636421,5.6786118,1.3913231
	c1.7061386,0.9003906,3.052002,2.2098885,4.0383682,3.9287758c0.9863663,1.6916847,1.4786301,3.7246246,1.4786301,6.098423
	c0,0.2455673-0.0123749,0.5326958-0.0390091,0.8600578c-0.0267181,0.3001633-0.0532455,0.5853348-0.0798721,0.8582001H80.9412766
	c0.1256638,0.5852585,0.318924,1.1338272,0.594429,1.638382c0.5331726,0.9003906,1.2663574,1.5949249,2.1993713,2.0860596
	c0.9597321,0.4638443,2.0788193,0.6965942,3.3584976,0.6965942c1.1463318,0,2.1468658-0.1765137,2.9999847-0.5312729
	c0.8797531-0.3546524,1.6801224-0.8881073,2.3999863-1.5975113l3.3176346,3.6835709
	c-0.9864578,1.1459579-2.2259598,2.0324326-3.7188721,2.6600494c-1.4929047,0.6002274-3.2123871,0.9009247-5.1584854,0.9009247
	c-2.4526443,0-4.6112595-0.4907837-6.4773712-1.473053c-1.8394775-0.9822769-3.266861-2.3188248-4.2798538-4.0105133
	c-1.013092-1.7188873-1.5195007-3.6703949-1.5195007-5.8532219c0-2.2101173,0.4941254-4.1615372,1.4804916-5.8532219
	c1.013092-1.7188873,2.3853836-3.0555305,4.118248-4.0105095C81.9887009,52.4743042,83.9490051,51.9835205,86.1350632,51.9835205z
	 M23.8226604,56.8132172c-1.066349,0-2.0137463,0.2444649-2.8402348,0.7356033
	c-0.7997627,0.4638405-1.4266758,1.133091-1.8798656,2.0061798c-0.2913055,0.5435524-0.477354,1.1620522-0.5814209,1.8408585
	h10.5714664c-0.1015034-0.690567-0.2928162-1.3224106-0.5925674-1.8817253
	c-0.4531879-0.84589-1.0801048-1.5014725-1.8798676-1.965313C25.8204079,57.057682,24.8890114,56.8132172,23.8226604,56.8132172z
	 M86.1740723,56.8132172c-1.0663528,0-2.0119858,0.2444649-2.8383789,0.7356033
	c-0.7998581,0.4638405-1.4266739,1.133091-1.8798676,2.0061798c-0.2912369,0.5435524-0.4773331,1.1620522-0.5814209,1.8408585
	h10.5714722c-0.1015244-0.690609-0.2928696-1.3223839-0.5925674-1.8817253
	c-0.4531937-0.84589-1.0801086-1.5014725-1.8798676-1.965313C88.1736832,57.057682,87.2404251,56.8132172,86.1740723,56.8132172z"/>
<path d="M12.7345181,26.681797L0,13.9473295l3.8068633-3.8068628l8.9276543,8.9276543L31.802639,0l3.8068657,3.8068633
	L12.7345181,26.681797z"/>
</svg>
